<?xml version="1.0" encoding="utf-8"?>
<!-- Generator: Adobe Illustrator 19.0.0, SVG Export Plug-In . SVG Version: 6.00 Build 0)  -->
<svg version="1.1" id="Layer_1" xmlns="http://www.w3.org/2000/svg" xmlns:xlink="http://www.w3.org/1999/xlink" x="0px" y="0px"
	 viewBox="-209 -78 300 300" style="enable-background:new -209 -78 300 300;" xml:space="preserve">
<style type="text/css">
	.st0{fill:#FFFFFF;}
</style>
<g>
	<path class="st0" d="M-57.2,36.1v-1.4l14.4-4.4l-14.4-3v-0.2c0-0.7-0.5-1.2-1.2-1.2s-1.2,0.5-1.2,1.2v9.1c0.2,0,0.4,0,0.6,0
		C-58.4,36.1-57.8,36.1-57.2,36.1L-57.2,36.1z"/>
	<path class="st0" d="M-102.3,38.7l14.1-5.3l-14.5-2.1v-0.2c0-0.7-0.6-1.1-1.3-1.1s-1.1,0.6-1.1,1.3l0.7,11c0.7-0.2,1.5-0.4,2.3-0.7
		L-102.3,38.7z"/>
	<path class="st0" d="M-78.7,28.8l14.1-5.2l-14.5-2.2v-0.2c0-0.7-0.6-1.2-1.2-1.1c-0.7,0-1.2,0.6-1.1,1.2l0.9,16.7
		c0.8-0.1,1.6-0.1,2.4-0.2L-78.7,28.8z"/>
	<path class="st0" d="M-79.1,67.1c-5.4-1.8-8.6-4.2-8.6-6.8c0-5.7,15.7-10.4,35-10.4s35,4.6,35,10.4c0,1.5-1.1,3-3.1,4.2
		c11.9-2.5,19.3-6,19.3-10c0-7.3-24.8-13.2-55.8-13.5c-0.6,0-1.2,0-1.8,0c-0.2,0-0.4,0-0.6,0c-6.5,0-12.8,0.3-18.6,0.8
		c-0.8,0.1-1.6,0.1-2.4,0.2c-8.3,0.8-15.7,2-21.6,3.6c-0.8,0.2-1.6,0.4-2.3,0.7c-7.6,2.3-12.1,5.1-12.1,8.3
		C-116.6,60.2-101,65.2-79.1,67.1L-79.1,67.1z"/>
	<path class="st0" d="M-115.9,64.9l8.2,37.3c1.8,0.4,3.7,0.8,5.7,1.1c0.3-9.1,0.7-18.6,1.3-18.6c0-1.1,0.9-2,2-2
		c1.1-0.1,2.1,1.5,2.4,3.7c0.4,0,1.6,8,3,18.3c4.8,0.6,9.9,1.2,15.1,1.5c0.3-9.4,0.8-18.2,1.4-18.2c0-1.3,1-2.3,2.3-2.3
		c1.3-0.1,2.5,1.8,2.8,4.3c0.4,0,1.5,7,2.8,16.7c3.2,0.1,6.5,0.2,9.9,0.2s6.6-0.1,9.9-0.2C-47.8,97-46.6,90-46.3,90
		c0.3-2.5,1.5-4.5,2.8-4.3c1.3,0,2.3,1,2.3,2.3c0.6,0.1,1.1,8.9,1.4,18.2c5.3-0.4,10.3-0.9,15.1-1.5c1.4-10.3,2.6-18.3,3-18.3
		c0.2-2.2,1.3-3.8,2.4-3.7c1.1,0,2,0.9,2,2c0.6,0.1,1.1,9.6,1.3,18.6c2-0.4,3.9-0.7,5.7-1.1l8.2-37.3C-9.2,69.5-32,74.8-59,74.8
		S-108.8,69.5-115.9,64.9L-115.9,64.9z"/>
</g>
</svg>
