<?xml version="1.0" encoding="utf-8"?>
<!-- Generator: Adobe Illustrator 19.0.0, SVG Export Plug-In . SVG Version: 6.00 Build 0)  -->
<svg version="1.1" id="Layer_1" xmlns="http://www.w3.org/2000/svg" xmlns:xlink="http://www.w3.org/1999/xlink" x="0px" y="0px"
	 viewBox="-329 131 300 300" style="enable-background:new -329 131 300 300;" xml:space="preserve">
<style type="text/css">
	.st0{fill:none;stroke:#FFFFFF;stroke-width:2.1;stroke-miterlimit:10;}
	.st1{fill:#FFFFFF;}
</style>
<path class="st0" d="M-272.5,361.8V209.2h192v152.6H-272.5z"/>
<g>
	<path class="st1" d="M-174.7,258.1v-1.4l14.4-4.4l-14.4-3v-0.2c0-0.7-0.5-1.2-1.2-1.2c-0.7,0-1.2,0.5-1.2,1.2v9.1
		c0.2,0,0.4,0,0.6,0C-175.9,258.1-175.3,258.1-174.7,258.1L-174.7,258.1z"/>
	<path class="st1" d="M-219.8,260.7l14.1-5.3l-14.5-2.1v-0.2c0-0.7-0.6-1.1-1.3-1.1c-0.7,0-1.1,0.6-1.1,1.3l0.7,11
		c0.7-0.2,1.5-0.4,2.3-0.7L-219.8,260.7z"/>
	<path class="st1" d="M-196.2,250.8l14.1-5.2l-14.5-2.2v-0.2c0-0.7-0.6-1.2-1.2-1.1c-0.7,0-1.2,0.6-1.1,1.2l0.9,16.7
		c0.8-0.1,1.6-0.1,2.4-0.2L-196.2,250.8z"/>
	<path class="st1" d="M-196.6,289.1c-5.4-1.8-8.6-4.2-8.6-6.8c0-5.7,15.7-10.4,35-10.4s35,4.6,35,10.4c0,1.5-1.1,3-3.1,4.2
		c11.9-2.5,19.3-6,19.3-10c0-7.3-24.8-13.2-55.8-13.5c-0.6,0-1.2,0-1.8,0c-0.2,0-0.4,0-0.6,0c-6.5,0-12.8,0.3-18.6,0.8
		c-0.8,0.1-1.6,0.1-2.4,0.2c-8.3,0.8-15.7,2-21.6,3.6c-0.8,0.2-1.6,0.4-2.3,0.7c-7.6,2.3-12.1,5.1-12.1,8.3
		C-234.1,282.2-218.5,287.2-196.6,289.1L-196.6,289.1z"/>
	<path class="st1" d="M-233.4,286.9l8.2,37.3c1.8,0.4,3.7,0.8,5.7,1.1c0.3-9.1,0.7-18.6,1.3-18.6c0-1.1,0.9-2,2-2
		c1.1-0.1,2.1,1.5,2.4,3.7c0.4,0,1.6,8,3,18.3c4.8,0.6,9.9,1.2,15.1,1.5c0.3-9.4,0.8-18.2,1.4-18.2c0-1.3,1-2.3,2.3-2.3
		c1.3-0.1,2.5,1.8,2.8,4.3c0.4,0,1.5,7,2.8,16.7c3.2,0.1,6.5,0.2,9.9,0.2c3.4,0,6.6-0.1,9.9-0.2c1.3-9.7,2.5-16.7,2.8-16.7
		c0.3-2.5,1.5-4.5,2.8-4.3c1.3,0,2.3,1,2.3,2.3c0.6,0.1,1.1,8.9,1.4,18.2c5.3-0.4,10.3-0.9,15.1-1.5c1.4-10.3,2.6-18.3,3-18.3
		c0.2-2.2,1.3-3.8,2.4-3.7c1.1,0,2,0.9,2,2c0.6,0.1,1.1,9.6,1.3,18.6c2-0.4,3.9-0.7,5.7-1.1l8.2-37.3c-7.1,4.6-29.9,9.9-56.9,9.9
		S-226.3,291.5-233.4,286.9L-233.4,286.9z"/>
</g>
</svg>
